<?xml version="1.0" standalone="no"?>
<!DOCTYPE svg PUBLIC "-//W3C//DTD SVG 20010904//EN"
 "http://www.w3.org/TR/2001/REC-SVG-20010904/DTD/svg10.dtd">
<svg version="1.0" xmlns="http://www.w3.org/2000/svg"
 width="192.000000pt" height="192.000000pt" viewBox="0 0 192.000000 192.000000"
 preserveAspectRatio="xMidYMid meet">
<metadata>
Created by potrace 1.14, written by Peter Selinger 2001-2017
</metadata>
<g transform="translate(0.000000,192.000000) scale(0.100000,-0.100000)"
fill="#000000" stroke="none">
<path d="M1020 1813 c-177 -27 -336 -128 -401 -255 -34 -66 -48 -159 -94 -623
-45 -456 -52 -499 -100 -581 -28 -48 -107 -94 -162 -94 -38 0 -50 -18 -59 -84
l-7 -45 39 -10 c244 -63 581 -86 724 -48 220 58 372 207 415 405 8 37 31 263
50 502 20 239 40 457 45 483 22 105 72 160 162 175 40 7 43 10 56 55 7 27 11
54 9 61 -11 29 -306 67 -507 65 -80 -1 -156 -3 -170 -6z m439 -178 c-45 -32
-76 -87 -89 -156 -6 -30 -28 -261 -49 -514 -42 -497 -46 -519 -113 -619 -41
-63 -141 -137 -215 -160 -14 -5 2 17 46 61 66 66 107 131 138 217 8 25 29 226
53 506 21 256 44 489 51 519 19 88 107 164 199 170 8 1 -1 -10 -21 -24z"/>
</g>
</svg>
